<?xml version="1.0" encoding="UTF-8"?>
<svg version="1.1" xmlns="http://www.w3.org/2000/svg" width="512" height="512">
<path d="M0 0 C1.60136707 -0.00346175 3.20273176 -0.00822978 4.80409151 -0.01418173 C9.17994755 -0.02665046 13.5556061 -0.02054023 17.93146265 -0.01122308 C22.66025433 -0.00441589 27.38901283 -0.01492212 32.11779785 -0.02316284 C41.37207535 -0.03648488 50.62627976 -0.03362916 59.88056009 -0.02492492 C67.40403796 -0.01814236 74.92749537 -0.01723413 82.45097542 -0.02049637 C84.05880306 -0.02118592 84.05880306 -0.02118592 85.69911208 -0.0218894 C87.87682243 -0.0228486 90.05453278 -0.02382124 92.23224313 -0.02480717 C112.64083025 -0.03335669 133.04937691 -0.02353401 153.45795739 -0.00740607 C170.95714506 0.00599479 188.45627301 0.00367007 205.95545959 -0.01016235 C226.29081456 -0.0262292 246.62613408 -0.03253074 266.96149451 -0.02332556 C269.13137884 -0.02236995 271.30126319 -0.02142683 273.47114754 -0.02049637 C274.53868891 -0.02003354 275.60623028 -0.01957072 276.7061214 -0.01909386 C284.21722577 -0.01650715 291.72830761 -0.02086815 299.23940849 -0.02793503 C308.39779329 -0.03636258 317.55610099 -0.03404358 326.714477 -0.0180928 C331.38432267 -0.01022669 336.05403995 -0.00709008 340.72388458 -0.01704025 C345.00419142 -0.02602225 349.28425161 -0.02099693 353.56453628 -0.0051076 C355.10747696 -0.00177455 356.65043875 -0.00342036 358.19336569 -0.01073496 C378.87993515 -0.10123116 395.11334733 6.0403121 410.13734436 20.39657593 C426.70273774 37.73245272 429.18889937 58.51454612 429.16168213 81.52882385 C429.16355356 83.04071669 429.16585558 84.55260904 429.16854745 86.06450063 C429.17463077 90.19314113 429.17453597 94.32176128 429.17335308 98.45040524 C429.17314819 102.91341213 429.17867621 107.37641263 429.18341064 111.8394165 C429.1916987 120.57363878 429.19446465 129.30785431 429.19502302 138.04208019 C429.19549906 145.14551468 429.19755817 152.24894696 429.20072365 159.35238075 C429.20952517 179.51521456 429.21414381 199.67804306 429.21339317 219.84087881 C429.21333324 221.46958536 429.21333324 221.46958536 429.21327209 223.13119507 C429.21323121 224.21833321 429.21319033 225.30547134 429.21314821 226.42555306 C429.21274188 244.03857174 429.22230949 261.65156903 429.23641046 279.26458152 C429.25079252 297.37232726 429.25767964 315.48006257 429.25681669 333.58781415 C429.25648535 343.7447467 429.25920463 353.90165682 429.26999474 364.05858421 C429.27912383 372.70702857 429.28125525 381.35544033 429.27448531 390.00388744 C429.27123225 394.41092376 429.27111926 398.81789762 429.27983856 403.2249279 C429.28775852 407.26977194 429.28621672 411.31450457 429.27755443 415.35934607 C429.27603144 416.81218651 429.2777895 418.2650355 429.28341451 419.71786585 C429.36978718 443.63599713 425.55670667 463.82630308 408.40296936 481.63095093 C396.12800706 493.76504659 379.63881167 500.48829963 362.36853981 500.515172 C361.72145154 500.51752423 361.07436327 500.51987647 360.40766627 500.52229998 C358.24239743 500.52894948 356.07718917 500.52853298 353.91191101 500.52812195 C352.3424611 500.53142311 350.77301204 500.53514921 349.20356405 500.53926343 C344.89260748 500.54926305 340.58166483 500.55299694 336.27069831 500.55565274 C331.62014155 500.5595619 326.96959576 500.56913987 322.31904602 500.5778656 C311.08815102 500.59761369 299.85725514 500.60769454 288.62634712 500.61659339 C283.33362937 500.62097937 278.04091261 500.62634541 272.74819565 500.63158226 C255.14690928 500.64859358 237.54562354 500.66308657 219.94433022 500.670331 C215.37829716 500.67224081 210.81226411 500.67416115 206.24623108 500.67611694 C204.54399378 500.67684255 204.54399378 500.67684255 202.80736785 500.67758282 C184.43419241 500.68587871 166.06108217 500.71120861 147.68793519 500.74369762 C128.81193953 500.77680284 109.93597697 500.79478293 91.05995214 500.79797524 C80.4669607 500.80013723 69.87406431 500.80884017 59.28110123 500.83443642 C50.25738651 500.8561908 41.23378994 500.8641706 32.21005197 500.85446963 C27.6105805 500.84993853 23.01135257 500.85174149 18.41191483 500.87123108 C14.19098098 500.88896134 9.97046653 500.88778598 5.74952762 500.87233379 C4.23260349 500.86997256 2.71564954 500.87420301 1.19877072 500.88616244 C-18.92877928 501.0348639 -37.18000098 495.6649232 -51.96372986 481.58529663 C-66.05319294 467.48857842 -72.32699949 449.48216038 -72.37792295 429.77935761 C-72.37213054 428.32727426 -72.36604966 426.87519203 -72.35971069 425.42311096 C-72.36389213 423.84761674 -72.36937406 422.27212554 -72.3760305 420.69663984 C-72.39039777 416.40143903 -72.38626789 412.10643152 -72.37886369 407.81122053 C-72.37411255 403.16554649 -72.38665904 398.51991311 -72.3968811 393.87425232 C-72.41403676 384.78601843 -72.41491579 375.69785377 -72.4096682 366.6096079 C-72.40561903 359.21874365 -72.40707892 351.82789979 -72.41241646 344.43703651 C-72.41316488 343.38322946 -72.4139133 342.3294224 -72.4146844 341.24368179 C-72.41621596 339.10253943 -72.41775431 336.96139707 -72.41929937 334.82025472 C-72.43301286 314.76157941 -72.42759495 294.70294314 -72.41611416 274.64426873 C-72.40618425 256.31679636 -72.41912034 237.98942499 -72.44304835 219.66196819 C-72.46746506 200.81738209 -72.47704082 181.97284296 -72.47039562 163.12824136 C-72.46690896 152.55883968 -72.46909885 141.98951563 -72.48664665 131.42012596 C-72.50140086 122.42218609 -72.50196215 113.42437852 -72.48457574 104.42644116 C-72.47608962 99.84110745 -72.47385743 95.25600975 -72.48922729 90.67068863 C-72.50315611 86.46297147 -72.49820722 82.25569067 -72.47898806 78.04799823 C-72.47525266 76.53600031 -72.47807797 75.02396674 -72.48859971 73.51200082 C-72.61446162 54.02038505 -67.82617443 35.68471131 -54.0096283 21.36532593 C-52.67510828 20.02580089 -51.32417306 18.70268535 -49.97203064 17.38095093 C-49.13091736 16.4914978 -49.13091736 16.4914978 -48.27281189 15.58407593 C-44.48461656 11.88536552 -39.89128768 9.59251487 -35.22203064 7.19345093 C-34.57854675 6.85990601 -33.93506287 6.52636108 -33.27207947 6.18270874 C-22.4165381 0.8443145 -11.92933066 -0.05646451 0 0 Z " fill="#2296F2" transform="translate(77.97203063964844,6.619049072265625)"/>
<path d="M0 0 C111.21 0 222.42 0 337 0 C337 83.49 337 166.98 337 253 C332.44734717 249.09772615 328.11146171 245.25131639 323.9128418 241.01049805 C323.3493251 240.44552109 322.78580841 239.88054413 322.20521545 239.29844666 C320.99556951 238.08502669 319.78707885 236.87045409 318.5796566 235.6548214 C316.66967142 233.73197242 314.75649172 231.8123529 312.84248352 229.89350891 C308.78799367 225.8276521 304.73747362 221.75785476 300.6875 217.6875 C295.97539246 212.95179096 291.26167157 208.21771122 286.54374123 203.48780251 C284.65713079 201.59470102 282.77355019 199.69861955 280.89006042 197.80241394 C279.74024924 196.6489724 278.59029864 195.4956698 277.44018555 194.3425293 C276.65395309 193.54854736 276.65395309 193.54854736 275.85183716 192.73852539 C272.70968939 189.59591677 271.18767676 188.14246479 266.7109375 187.60546875 C262.08256068 188.09753829 260.42013328 189.8782404 257.625 193.3125 C256.91911743 194.12956421 256.91911743 194.12956421 256.19897461 194.96313477 C254.77523471 196.6235633 253.38328568 198.30579 252 200 C251.24589844 200.92039062 250.49179687 201.84078125 249.71484375 202.7890625 C248.26496605 204.57312253 246.81973781 206.36096999 245.37890625 208.15234375 C242.2027143 211.95438633 238.82729178 215.54903752 235.44165039 219.16381836 C232.32446055 222.51099327 229.36426202 225.93005023 226.5 229.5 C222.61763515 234.33878685 218.49472254 238.89288616 214.24804688 243.41015625 C211.81703493 246.00149065 209.48675396 248.61193356 207.265625 251.38671875 C206.51796875 252.24910156 205.7703125 253.11148438 205 254 C204.34 254 203.68 254 203 254 C201.328125 252.19140625 201.328125 252.19140625 199.25 249.5625 C198.04730469 248.06009766 198.04730469 248.06009766 196.8203125 246.52734375 C196.37333008 245.96644043 195.92634766 245.40553711 195.46582031 244.82763672 C192.71735345 241.40075082 189.91885033 238.01490211 187.125 234.625 C186.52502197 233.89595459 185.92504395 233.16690918 185.30688477 232.41577148 C181.18904547 227.41962266 177.02688022 222.46370186 172.83251953 217.53173828 C169.26971596 213.33671818 165.78674425 209.08085722 162.3125 204.8125 C159.73853406 201.68200088 157.12420534 198.5883659 154.5 195.5 C150.44987401 190.7308879 146.45647887 185.92087568 142.50390625 181.0703125 C134.69208052 171.49138111 126.84027163 161.94770048 118.83251953 152.53173828 C116.01761419 149.21733032 113.24536045 145.87217726 110.5 142.5 C106.25618343 137.29029687 101.94380872 132.14347841 97.57421875 127.0390625 C96.0037512 125.18500521 94.45770314 123.30942694 92.95703125 121.3984375 C92.37308594 120.66882813 91.78914063 119.93921875 91.1875 119.1875 C90.70667969 118.56230469 90.22585937 117.93710938 89.73046875 117.29296875 C87.04419034 115.28583973 85.2873681 115.57639416 82 116 C79.72810834 117.75795303 77.94885517 119.37123401 76.0078125 121.44140625 C75.45817841 122.0019017 74.90854431 122.56239716 74.34225464 123.13987732 C72.58845693 124.93377365 70.8563818 126.74698394 69.125 128.5625 C67.39671728 130.34865041 65.66413502 132.13048312 63.9291687 133.91014099 C62.85347193 135.01635057 61.78222819 136.12691703 60.71658325 137.24281311 C58.0179775 140.04623041 55.25395227 142.68094736 52.2980957 145.21289062 C47.46163105 149.39048052 42.97758869 153.90913647 38.48051643 158.44431877 C36.94041538 159.99735542 35.39706083 161.54709502 33.85289001 163.09608459 C30.58657378 166.37372346 27.32426635 169.65533411 24.0625 172.9375 C20.25612493 176.7674861 16.4481191 180.5958221 12.63592339 184.42001534 C11.11322801 185.94920557 9.5935638 187.48136543 8.07398987 189.01365662 C7.15891159 189.93203812 6.24383331 190.85041962 5.30102539 191.79663086 C4.08812584 193.01738564 4.08812584 193.01738564 2.85072327 194.26280212 C1 196 1 196 0 196 C0 131.32 0 66.64 0 0 Z " fill="#1C7AC5" transform="translate(88,88)"/>
<path d="M0 0 C0.64949885 0.58347808 0.64949885 0.58347808 1.31211889 1.1787436 C5.09660069 4.51108749 8.85125696 7.27232103 13.23306274 9.80462646 C35.93702051 23.46277081 60.33492298 43.18246192 68.04122734 69.56458664 C73.06142117 91.16102114 73.10436953 113.7663348 73.1484375 135.828125 C73.15145549 137.02900131 73.15145549 137.02900131 73.15453446 138.25413775 C73.18847661 158.26301103 72.68812704 178.24871667 71.97182813 198.24331063 C71.50842341 211.17870854 71.19488176 224.10874882 71.01953125 237.05126953 C71.00788564 237.90762337 70.99624003 238.7639772 70.98424153 239.64628115 C70.92649846 243.947263 70.87112285 248.24827185 70.81662631 252.5492959 C70.48115999 278.70319682 69.97430215 304.85047627 69.15150356 330.99375415 C69.08849239 333.02060128 69.02815472 335.04751166 68.96853065 337.07446098 C68.12280375 365.20719857 67.04896408 389.801813 45.84326172 410.76416016 C31.99085748 423.70539167 14.71839812 427.86569338 -3.74249268 428.56437683 C-4.93428469 428.6117986 -6.12607671 428.65922037 -7.35398364 428.70807916 C-10.65615773 428.8371507 -13.95842702 428.96192891 -17.26087952 429.08356273 C-19.37546217 429.16159039 -21.4899916 429.24095834 -23.60451889 429.32047081 C-50.58016424 430.32833612 -77.56126232 430.96931785 -104.55103834 431.45402915 C-108.98589554 431.5338696 -113.4206962 431.61652175 -117.85546875 431.70092773 C-119.179159 431.72604821 -119.179159 431.72604821 -120.52959046 431.75167618 C-132.92840456 431.99307171 -145.31310511 432.3936147 -157.70286912 432.92219318 C-179.03421984 433.83217971 -200.35104344 434.44235633 -221.703125 434.48046875 C-222.52641997 434.48259359 -223.34971493 434.48471843 -224.19795823 434.48690766 C-263.75733632 434.54707664 -298.29539073 433.50258723 -328.16326904 404.13923645 C-360 371.16811689 -360 371.16811689 -360 361 C-359.25246562 360.99864347 -358.50493124 360.99728694 -357.73474431 360.99588931 C-313.46038173 360.91529372 -269.18605078 360.82436159 -224.91173764 360.71994839 C-219.59936172 360.70742905 -214.28698561 360.69499635 -208.97460938 360.68261719 C-207.91698099 360.68015119 -206.8593526 360.6776852 -205.76967487 360.67514448 C-188.62962413 360.63538705 -171.48956677 360.60265293 -154.34949675 360.57250018 C-136.7709846 360.54142033 -119.19250061 360.50282587 -101.61402011 360.45720994 C-90.76130856 360.42928553 -79.90861769 360.40726967 -69.0558798 360.39273749 C-61.62052966 360.38222064 -54.18521949 360.36442516 -46.74989942 360.34083296 C-42.45582749 360.32742514 -38.16181174 360.31729644 -33.86771774 360.31578636 C-29.93961842 360.31433438 -26.01165455 360.303782 -22.0835968 360.28586559 C-20.65958576 360.28099944 -19.23555841 360.27952759 -17.81154075 360.28172119 C-15.88126408 360.28420738 -13.95098386 360.273324 -12.02074051 360.26171303 C-10.94689142 360.25943471 -9.87304232 360.25715638 -8.76665235 360.25480902 C-5.97321176 359.9975328 -4.33095765 359.53255488 -2 358 C-0.65177905 355.3035581 -0.86876483 353.21495847 -0.8613348 350.19412041 C-0.85586036 348.95004948 -0.85038591 347.70597856 -0.84474558 346.42420852 C-0.84366924 345.03092383 -0.84268457 343.63763906 -0.84178162 342.24435425 C-0.83721871 340.77419783 -0.83221909 339.30404271 -0.82681805 337.83388913 C-0.81319658 333.7794504 -0.80580703 329.72502008 -0.79939139 325.67056441 C-0.791405 321.30381386 -0.77770119 316.93708093 -0.76467896 312.57034302 C-0.74289115 304.99983139 -0.72475511 297.429318 -0.70907402 289.85879135 C-0.68639633 278.91297536 -0.65825062 267.96717886 -0.62875474 257.02137937 C-0.58105302 239.26409874 -0.53779585 221.50681016 -0.49731445 203.74951172 C-0.45797264 186.49625021 -0.41654958 169.24299578 -0.37231445 151.98974609 C-0.36822804 150.39547863 -0.36822804 150.39547863 -0.36405908 148.76900373 C-0.35037982 143.43721555 -0.33665951 138.10542747 -0.32291877 132.77363944 C-0.20891347 88.51577437 -0.1021131 44.257894 0 0 Z " fill="#1B7AC5" transform="translate(439,79)"/>
<path d="M0 0 C7.34572368 7.31692286 14.10555227 15.03498822 20.625 23.09375 C23.16664662 26.20392284 25.76582311 29.25911993 28.375 32.3125 C32.15813379 36.74832975 35.80533595 41.26601751 39.375 45.875 C43.83051671 51.62027155 48.51143405 57.13095441 53.29980469 62.60058594 C57.21631957 67.07760385 61.01327067 71.63542937 64.7578125 76.2578125 C67.30253917 79.37000435 69.89628508 82.43717484 72.5 85.5 C76.55024678 90.26900729 80.54352371 95.07912749 84.49609375 99.9296875 C92.80516807 110.11834962 101.16688264 120.25962522 109.6953125 130.265625 C111.21619948 132.07006717 112.69577767 133.91025593 114.12890625 135.78515625 C115.88318218 138.20072164 115.88318218 138.20072164 118.8125 139.1875 C123.67774904 138.90130888 125.77272365 136.48625531 129 133 C131.20711083 130.38811016 133.3500497 127.73341289 135.48046875 125.05859375 C138.20518668 121.75091291 141.06842898 118.62303188 144 115.5 C147.64931979 111.60468437 151.15702549 107.66660591 154.5 103.5 C158.31353409 98.74689954 162.37131791 94.29734753 166.54101562 89.86010742 C170.63830417 85.47156425 174.38889378 80.89656354 178.0625 76.14453125 C179.99322814 74.00749546 181.43110462 73.18397504 184 72 C184.4125 72.41773682 184.825 72.83547363 185.25 73.26586914 C187.16388778 75.20085027 189.08191671 77.13167801 191 79.0625 C191.64839844 79.71927734 192.29679687 80.37605469 192.96484375 81.05273438 C193.61582031 81.70693359 194.26679688 82.36113281 194.9375 83.03515625 C195.52402344 83.6269165 196.11054688 84.21867676 196.71484375 84.82836914 C201.63391196 89.50306057 206.76195651 93.85165184 212.13085938 98.00170898 C216.77646885 101.60499453 221.24661999 105.35974959 225.65001678 109.25190639 C228.29351025 111.57795728 230.952488 113.81114552 233.78613281 115.90307617 C243.59334834 123.32620501 245.9000847 128.33787875 253 140 C253 161.12 253 182.24 253 204 C141.79 204 30.58 204 -84 204 C-84 83 -84 83 -76 75 C-71.94689941 71.43980408 -71.94689941 71.43980408 -69.94160461 69.71134758 C-66.78067206 66.9252735 -63.81920642 63.95031826 -60.84960938 60.96313477 C-60.18519836 60.29886978 -59.52078735 59.6346048 -58.83624268 58.95021057 C-56.66969579 56.7829744 -54.50669938 54.61223229 -52.34375 52.44140625 C-50.83082644 50.926615 -49.31768 49.41204632 -47.80432129 47.89768982 C-43.84348026 43.9330512 -39.88565298 39.96541749 -35.9284668 35.99713135 C-31.88122661 31.93961743 -27.83111435 27.88497254 -23.78125 23.83007812 C-15.85136888 15.88950839 -7.92467179 7.9457684 0 0 Z " fill="#1B7AC5" transform="translate(172,221)"/>
<path d="M0 0 C1.24496952 -0.01104769 2.48993905 -0.02209538 3.77263492 -0.03347784 C5.15659226 -0.02552028 6.54054745 -0.01718258 7.92450047 -0.00850582 C9.39282526 -0.01382917 10.86114461 -0.02089364 12.32945353 -0.02955288 C16.36983986 -0.04823553 20.40986107 -0.04185607 24.4502629 -0.03139985 C28.80550829 -0.02442368 33.16067746 -0.04039371 37.51590061 -0.05339718 C46.05024153 -0.0750692 54.58444927 -0.07490208 63.11880868 -0.06677163 C70.05375293 -0.06047847 76.98865827 -0.06160238 83.9236021 -0.06804371 C85.40266665 -0.06939619 85.40266665 -0.06939619 86.91161128 -0.070776 C88.9145885 -0.07262715 90.91756571 -0.07448971 92.9205429 -0.07636356 C111.71509187 -0.09295325 130.50956583 -0.08421296 149.3041103 -0.06737798 C166.50797078 -0.05268066 183.71165662 -0.06730781 200.91549461 -0.09614814 C218.56984821 -0.12552387 236.22412116 -0.13651971 253.87849814 -0.12696594 C255.87452033 -0.12594336 257.87054253 -0.12494875 259.86656475 -0.12398243 C260.84870449 -0.12350604 261.83084424 -0.12302965 262.84274579 -0.12253882 C269.77047939 -0.12037224 276.69813684 -0.13019175 283.62585354 -0.14475346 C292.06697384 -0.16224832 300.50787145 -0.16220051 308.94898289 -0.1394018 C313.25750848 -0.12823348 317.56564132 -0.12515529 321.87415028 -0.14370251 C325.81653159 -0.16045551 329.75817603 -0.1542276 333.70050914 -0.12948572 C335.12846043 -0.12458483 336.55647058 -0.12816593 337.98437285 -0.14097316 C348.482341 -0.22835452 348.482341 -0.22835452 353.30332279 2.16482639 C356.07184915 7.74192886 355.64503292 13.48003596 355.5901804 19.59565067 C355.59522526 21.06555292 355.60245363 22.53544902 355.61167854 24.00533098 C355.6306365 28.04547836 355.61834752 32.08502183 355.60095561 36.12515414 C355.58760349 40.48172611 355.60301086 44.83820844 355.61477757 49.19477177 C355.63317421 57.72934882 355.62462857 66.26369722 355.60668934 74.79826719 C355.59267498 81.73272272 355.58876803 88.6671161 355.59213161 95.60158443 C355.59260906 96.58778069 355.5930865 97.57397696 355.59357841 98.59005795 C355.59460472 100.59335937 355.59566007 102.59666078 355.59674417 104.59996217 C355.60531522 122.32109991 355.58862262 140.04212711 355.55891514 157.76323795 C355.53007239 174.96868883 355.52299574 192.17398046 355.53840733 209.37944889 C355.5551579 228.105465 355.55921573 246.83140547 355.54169697 265.55742353 C355.53985253 267.55313137 355.5380178 269.54883922 355.53619289 271.54454708 C355.5352808 272.52653255 355.53436871 273.50851802 355.53342899 274.52026062 C355.5278168 281.4489585 355.53113707 288.37761953 355.53773785 295.30631542 C355.54545905 303.74632783 355.53876221 312.18618331 355.51356281 320.62616403 C355.50103998 324.93451462 355.49495479 329.24262057 355.50610447 333.55098057 C355.51611105 337.49195723 355.50776455 341.43244496 355.48452329 345.37336188 C355.47934406 346.80193345 355.48096156 348.23054849 355.48991794 349.65910137 C355.50105157 351.59543223 355.48533153 353.53186255 355.46814919 355.46814919 C355.4669577 356.54536344 355.46576622 357.6225777 355.46453863 358.73243481 C354.82196232 362.2790237 353.89679356 363.43894646 350.96199131 365.50615788 C348.17314285 366.00640386 348.17314285 366.00640386 344.88716125 366.00672913 C343.63399154 366.01654342 342.38082183 366.02635771 341.08967727 366.0364694 C339.69648109 366.02712996 338.3032874 366.01741439 336.91009617 366.00736332 C335.43209805 366.01125482 333.95410366 366.01689404 332.47611815 366.02413422 C328.40905136 366.03892866 324.34237018 366.02868422 320.27531564 366.0143975 C315.89149155 366.00331423 311.50772274 366.01522147 307.12390232 366.02423954 C298.53407145 366.03819176 289.94438732 366.0306014 281.35456341 366.01556396 C271.35817062 365.99872828 261.36181464 366.00191099 251.36541206 366.00565804 C233.53388728 366.01154017 215.70243305 365.99735079 197.87092686 365.97271061 C180.55481923 365.9487852 163.23880586 365.9417073 145.92268467 365.9522028 C127.08023286 365.96360291 108.23782468 365.96555358 89.3953734 365.9511047 C87.38759141 365.94957881 85.3798094 365.94805845 83.3720274 365.94654369 C82.38407801 365.94578588 81.39612862 365.94502807 80.37824137 365.94424729 C73.40450794 365.93949772 66.43079395 365.94136063 59.45706081 365.94560909 C50.96322309 365.95052733 42.46947463 365.94458907 33.9756574 365.9247148 C29.63911941 365.91481911 25.30271755 365.90976211 20.96617222 365.91760731 C17.00061462 365.92463478 13.03533242 365.91792888 9.06981129 365.90000368 C7.63113048 365.89594004 6.19242479 365.8969909 4.75375306 365.90352254 C2.80617062 365.91161156 0.85853511 365.8996185 -1.08901978 365.88647461 C-2.17323135 365.88544548 -3.25744292 365.88441635 -4.37450939 365.88335603 C-7.03800869 365.50615788 -7.03800869 365.50615788 -8.8860507 364.35419989 C-10.53993653 361.70093429 -10.41536625 359.67473183 -10.41832542 356.55716896 C-10.42676537 355.30660699 -10.43520531 354.05604503 -10.443901 352.76758724 C-10.4381052 351.37213912 -10.43202414 349.97669216 -10.42568874 348.58124638 C-10.42985898 347.10482532 -10.43533478 345.62840746 -10.44200855 344.1519956 C-10.45652279 340.08466927 -10.45219992 336.01754453 -10.44484174 331.95020688 C-10.44012707 327.56770946 -10.45260479 323.18525674 -10.46285915 318.80277348 C-10.48008602 310.21316955 -10.48087913 301.62363865 -10.47564625 293.03402192 C-10.47161053 286.05471432 -10.47304098 279.07542835 -10.47839451 272.09612179 C-10.47914293 271.10410383 -10.47989135 270.11208586 -10.48066245 269.09000675 C-10.48219388 267.07494827 -10.48373222 265.0598898 -10.48527742 263.04483133 C-10.49901653 244.13301382 -10.49355488 225.22123763 -10.48209221 206.30942106 C-10.47215835 188.99491509 -10.48510065 171.68051596 -10.5090264 154.36602647 C-10.5333889 136.6021061 -10.5430323 118.83823555 -10.53637367 101.0742988 C-10.5328751 91.09534183 -10.53515545 81.11646707 -10.5526247 71.1375227 C-10.56731111 62.64258033 -10.56802894 54.14777805 -10.55055379 45.65283854 C-10.54201191 41.31613875 -10.53997146 36.97968956 -10.55520535 32.64300251 C-10.56896822 28.67605806 -10.56439876 24.70958087 -10.54496611 20.74266403 C-10.54117977 19.30460463 -10.54420323 17.86650855 -10.55457776 16.42848159 C-10.56764394 14.47935353 -10.55384455 12.5301 -10.53857994 10.58098793 C-10.5384726 9.496614 -10.53836527 8.41224008 -10.53825468 7.29500633 C-9.43484871 1.14356864 -5.75292221 0.00636318 0 0 Z M3.96199131 14.50615788 C3.96199131 79.18615788 3.96199131 143.86615788 3.96199131 210.50615788 C8.15872425 206.90895822 12.08511136 203.5061056 15.94416904 199.62163639 C17.31610668 198.24474392 17.31610668 198.24474392 18.71576023 196.84003544 C19.19294939 196.35872732 19.67013855 195.8774192 20.16178799 195.38152599 C21.67852274 193.85184531 23.19851859 192.32547011 24.71933079 190.79984379 C28.49426284 187.01165221 32.26370242 183.21801088 36.03328037 179.42449284 C39.22750985 176.21039816 42.42387232 172.99845257 45.6229887 169.78922176 C47.10718617 168.29862849 48.58829481 166.80501476 50.06927586 165.31122684 C54.66519415 160.69876713 59.30853548 156.2383992 64.25283909 152.0015955 C66.60740807 149.94144486 68.75840474 147.71960338 70.90730381 145.44756413 C71.756796 144.56777897 72.60628819 143.68799381 73.48152256 142.7815485 C75.23593518 140.95480253 76.98058401 139.11863473 78.71589756 137.273736 C79.56281162 136.40297428 80.40972569 135.53221256 81.28230381 134.63506413 C82.03785557 133.84172672 82.79340733 133.04838932 83.57185459 132.23101139 C86.60558178 130.04170776 88.29666401 129.99877074 91.96199131 130.50615788 C94.04362308 132.24743526 95.5694104 133.76324784 97.27449131 135.81865788 C97.74886631 136.36336735 98.22324131 136.90807682 98.71199131 137.46929264 C100.14940249 139.13190145 101.55936688 140.81415093 102.96199131 142.50615788 C103.7289835 143.4265485 104.49597569 144.34693913 105.28621006 145.29522038 C106.74917895 147.07599759 108.2034942 148.86391593 109.64949131 150.65850163 C112.21066192 153.81237557 114.82934163 156.9119988 117.46199131 160.00615788 C123.11104917 166.65607929 128.63023648 173.40738036 134.13386631 180.17803288 C138.65610946 185.72660071 143.2408241 191.21530583 147.87556553 196.66973209 C151.52154063 200.96727412 155.09176411 205.32273589 158.64949131 209.69365788 C161.22345725 212.82415699 163.83778597 215.91779197 166.46199131 219.00615788 C170.5121173 223.77526997 174.50551244 228.58528219 178.45808506 233.43584538 C181.57542118 237.25835113 184.70395359 241.07151553 187.83699131 244.88115788 C188.72934483 245.96650822 188.72934483 245.96650822 189.63972569 247.07378483 C193.93287773 252.28431199 198.27318786 257.45243115 202.67439365 262.57207584 C205.85614976 266.29447478 205.85614976 266.29447478 206.96199131 268.50615788 C210.55920487 267.01068707 212.59296352 264.9790948 215.14949131 262.06865788 C215.94097569 261.16889225 216.73246006 260.26912663 217.54792881 259.34209538 C219.83296248 256.65773543 222.06161444 253.93762519 224.27449131 251.19365788 C228.16455062 246.38030351 232.29070965 241.85854337 236.51765537 237.34502506 C240.43631365 233.13701964 244.07251032 228.7520342 247.67292881 224.26787663 C250.6828198 220.63648938 253.85365215 217.17227193 257.07844639 213.73149967 C259.62516214 211.00812269 261.9648832 208.22833287 264.21199131 205.25615788 C266.96199131 202.50615788 266.96199131 202.50615788 270.33699131 201.63115788 C279.45546942 203.83216983 287.02604359 214.4508321 293.51863003 220.9876318 C295.42840941 222.91029746 297.34140317 224.82971375 299.25521946 226.74836063 C303.3061469 230.81063884 307.3530889 234.87687298 311.39949131 238.94365788 C316.11454116 243.68230171 320.83120658 248.4193143 325.55206585 253.15217113 C327.44038182 255.04698744 329.32567412 256.94477798 331.21087742 258.84269047 C332.35750528 259.99294734 333.50427179 261.14306601 334.65120029 262.29302311 C335.44046909 263.09004139 335.44046909 263.09004139 336.24568272 263.90316105 C337.46562313 265.12328145 338.71105917 266.31783251 339.96199131 267.50615788 C340.29199131 267.50615788 340.62199131 267.50615788 340.96199131 267.50615788 C340.96199131 184.01615788 340.96199131 100.52615788 340.96199131 14.50615788 C229.75199131 14.50615788 118.54199131 14.50615788 3.96199131 14.50615788 Z M87.96199131 147.50615788 C87.05267857 148.41769123 86.14336582 149.32922459 85.20649815 150.26838017 C76.61740325 158.87778744 68.02563819 167.48452209 59.431283 176.08867836 C55.013425 180.51174464 50.59649783 184.93573203 46.18171787 189.36187077 C41.91751541 193.63697527 37.65084199 197.9095995 33.38247776 202.18054867 C31.75820619 203.80666133 30.13481187 205.43365076 28.51233006 207.06154919 C26.23162349 209.34956335 23.94775676 211.63437929 21.66316319 213.91851139 C20.99997074 214.58529911 20.3367783 215.25208683 19.65348911 215.93908024 C15.77855197 219.80561087 11.78976972 223.47979869 7.63655949 227.04634857 C6.36842299 228.15184997 5.15159282 229.31655636 3.96199131 230.50615788 C3.96199131 270.43615788 3.96199131 310.36615788 3.96199131 351.50615788 C115.17199131 351.50615788 226.38199131 351.50615788 340.96199131 351.50615788 C346.70134165 293.06081696 346.70134165 293.06081696 329.86824131 270.12725163 C325.69396454 266.31752526 321.75754029 262.82401674 317.32307529 259.41442204 C314.1469629 256.90442661 311.16096417 254.18397412 308.14949131 251.48076725 C302.78806987 246.71666527 297.29298321 242.17011975 291.6848917 237.70060062 C286.17849497 233.26287957 280.92458368 228.60879075 275.96199131 223.56865788 C275.19886631 222.79650944 274.43574131 222.024361 273.64949131 221.22881413 C272.81417881 220.37609928 272.81417881 220.37609928 271.96199131 219.50615788 C267.60749436 221.08492099 265.18342952 224.48068253 262.33699131 227.94365788 C261.26680766 229.22089987 260.1951735 230.49692779 259.12214756 231.77178288 C258.58992588 232.40535709 258.0577042 233.03893131 257.50935459 233.69170475 C255.32567031 236.25231402 253.05763082 238.72114999 250.77449131 241.19365788 C247.58462287 244.66752097 244.54150237 248.20525812 241.58699131 251.88115788 C237.72451621 256.67171886 233.62512136 261.16879649 229.41706944 265.65215397 C226.14511072 269.15976912 223.08004944 272.75727698 220.08699131 276.50615788 C214.02350706 283.97899252 214.02350706 283.97899252 209.96199131 286.50615788 C206.90158571 286.53616185 204.83345441 286.23161012 202.43635654 284.23613834 C200.79684379 282.48925927 199.27962124 280.68259017 197.77449131 278.81865788 C197.20988194 278.14383366 196.64527256 277.46900944 196.06355381 276.773736 C191.98144388 271.86144416 188.03801604 266.83811278 184.13166904 261.78545475 C180.15325229 256.66613143 175.93145696 251.78214109 171.66169834 246.90508366 C167.74541896 242.4281678 163.94857553 237.87054939 160.20417881 233.24834538 C157.65945214 230.13615353 155.06570623 227.06898304 152.46199131 224.00615788 C148.41174453 219.23715058 144.4184676 214.42703039 140.46589756 209.57647038 C132.65407183 199.99753899 124.80226294 190.45385835 116.79451084 181.03789616 C113.9796055 177.7234882 111.20735176 174.37833513 108.46199131 171.00615788 C105.07696178 166.85401733 101.66106564 162.73012509 98.21199131 158.63115788 C97.54006748 157.82774967 97.54006748 157.82774967 96.85456944 157.008111 C94.0382165 153.67284609 91.06236654 150.57611189 87.96199131 147.50615788 Z " fill="#FCFDFE" transform="translate(84.03800868988037,73.49384212493896)"/>
<path d="M0 0 C6.95017356 4.26631783 11.7210836 10.52523464 14.14453125 18.31640625 C15.6746548 28.2042501 13.8703443 36.12277994 8.14453125 44.31640625 C3.10488033 50.03819174 -2.39734893 53.88093667 -10.0546875 54.62890625 C-19.49566878 54.95551317 -26.23466549 53.33770069 -34.10546875 48.19140625 C-40.98575473 40.99838 -44.21111604 33.82348665 -44.06640625 23.96875 C-43.45367944 16.26427772 -40.2362155 9.82443948 -34.85546875 4.31640625 C-24.7050904 -3.66508783 -11.97644353 -5.700231 0 0 Z " fill="#FAFCFD" transform="translate(331.85546875,148.68359375)"/>
<path d="M0 0 C3.9323173 2.65202795 6.18648186 5.30944559 7.6875 9.8125 C8.33353217 15.30377347 7.29714319 18.63200455 4.23828125 23.078125 C0.86614448 26.84948199 -3.02802235 27.65475713 -7.875 28.25 C-13.04747369 27.59168517 -17.00567203 24.81550228 -20.3125 20.8125 C-22.18914991 15.18255027 -22.24999151 9.72220492 -19.625 4.375 C-13.96004467 -1.90238294 -7.86175205 -2.81836394 0 0 Z " fill="#1E7CC5" transform="translate(324.3125,161.1875)"/>
<path d="M0 0 C0.79857422 -0.01998047 1.59714844 -0.03996094 2.41992188 -0.06054688 C6.44782543 -0.05720976 8.57785472 0.14233539 12.08984375 2.28125 C14.0625 4.4375 14.0625 4.4375 14.6875 7.375 C13.83515602 11.55148549 12.41947404 12.83085736 9.0625 15.4375 C6.04070593 16.15838551 3.15642831 16.13783916 0.0625 16.0625 C-0.7315625 16.08183594 -1.525625 16.10117188 -2.34375 16.12109375 C-6.6467472 16.08523544 -8.46428008 15.79528569 -11.99609375 13.125 C-13.9375 10.4375 -13.9375 10.4375 -14 6.8125 C-11.72123432 -0.42593214 -6.65389655 -0.05878945 0 0 Z " fill="#F3F8FC" transform="translate(373.9375,166.5625)"/>
<path d="M0 0 C0.79857422 -0.01998047 1.59714844 -0.03996094 2.41992188 -0.06054688 C6.44782543 -0.05720976 8.57785472 0.14233539 12.08984375 2.28125 C14.0625 4.4375 14.0625 4.4375 14.6875 7.375 C13.83515602 11.55148549 12.41947404 12.83085736 9.0625 15.4375 C6.04070593 16.15838551 3.15642831 16.13783916 0.0625 16.0625 C-0.7315625 16.08183594 -1.525625 16.10117188 -2.34375 16.12109375 C-6.6467472 16.08523544 -8.46428008 15.79528569 -11.99609375 13.125 C-13.9375 10.4375 -13.9375 10.4375 -14 6.8125 C-11.72123432 -0.42593214 -6.65389655 -0.05878945 0 0 Z " fill="#F3F8FC" transform="translate(259.9375,166.5625)"/>
<path d="M0 0 C2.5 1.5625 2.5 1.5625 4 4 C3.91587585 9.3904164 2.60853774 12.13981244 -1.06054688 15.83203125 C-1.59744141 16.34121094 -2.13433594 16.85039062 -2.6875 17.375 C-3.20505859 17.90738281 -3.72261719 18.43976563 -4.25585938 18.98828125 C-7.61415877 22.2754834 -10.09553256 23.96560682 -15 24 C-18.23820057 21.67694307 -19.77523126 20.20963329 -20.51171875 16.24609375 C-19.76835627 11.53056532 -17.28500961 9.36618127 -13.9375 6.125 C-13.37611328 5.53203125 -12.81472656 4.9390625 -12.23632812 4.328125 C-8.27998402 0.40343165 -5.78519035 -0.86251929 0 0 Z " fill="#F9FBFD" transform="translate(285,203)"/>
<path d="M0 0 C2.81109135 1.86851335 5.0841003 4.15544766 7.4375 6.5625 C8.08654297 7.17158203 8.73558594 7.78066406 9.40429688 8.40820312 C13.99698055 13.01062738 13.99698055 13.01062738 14.01171875 17.83984375 C13 21 13 21 11.375 23 C7.86842986 24.47645058 5.67290264 23.89121902 2 23 C-0.23718488 21.21769031 -1.9823635 19.64281415 -3.875 17.5625 C-4.60203125 16.80743164 -4.60203125 16.80743164 -5.34375 16.03710938 C-8.19120419 13.04251021 -9.86094051 11.27934735 -10.3125 7.125 C-10 4 -10 4 -8.375 1.625 C-5.18658982 -0.5565438 -3.8277172 -0.59061361 0 0 Z " fill="#F9FBFD" transform="translate(275,122)"/>
<path d="M0 0 C2.94097993 1.02294954 3.9956151 1.60028531 5.875 4 C6.50258159 7.28200521 6.33846507 10.60216925 6.3125 13.9375 C6.33248047 14.84435547 6.35246094 15.75121094 6.37304688 16.68554688 C6.36817701 23.30368851 6.36817701 23.30368851 4.03515625 26.59765625 C1.07008424 28.52254025 -0.65706126 28.57798979 -4.125 28 C-6.27734375 26.55859375 -6.27734375 26.55859375 -8.125 24 C-8.74531171 20.84529358 -8.72882624 17.76892965 -8.6875 14.5625 C-8.71134766 13.71623047 -8.73519531 12.86996094 -8.75976562 11.99804688 C-8.74926495 7.52826103 -8.55375008 5.5676107 -5.78515625 1.90234375 C-3.125 0 -3.125 0 0 0 Z " fill="#FAFCFD" transform="translate(318.125,217)"/>
<path d="M0 0 C2.69054439 1.66933463 4.75995987 3.77995794 6.9375 6.0625 C7.52595703 6.62388672 8.11441406 7.18527344 8.72070312 7.76367188 C11.76454394 10.85700604 12.91285995 12.35676009 13.51171875 16.77734375 C13 20 13 20 10.875 22.5 C7.21042925 24.41194996 5.94004109 24.15236639 2 23 C-0.38817206 21.39024882 -2.35417801 19.48077557 -4.375 17.4375 C-5.19291016 16.68629883 -5.19291016 16.68629883 -6.02734375 15.91992188 C-8.99606538 12.96980126 -10.354874 10.98516444 -10.41796875 6.72265625 C-10 3 -10 3 -8.9375 1 C-5.77380074 -0.63287704 -3.51955754 -0.40748976 0 0 Z " fill="#FAFCFD" transform="translate(356,203)"/>
<path d="M0 0 C2.3125 1.5625 2.3125 1.5625 4 4 C4.45275431 7.25124434 4.73962264 9.78253824 2.98120117 12.67700195 C1.55089484 14.35583396 0.04297527 15.86328908 -1.5625 17.375 C-2.33303711 18.17357422 -2.33303711 18.17357422 -3.11914062 18.98828125 C-6.84284143 22.62409347 -9.63231728 23.85161454 -15 24 C-17.4375 23.0625 -17.4375 23.0625 -19 21 C-19.83165793 14.33275909 -19.83165793 14.33275909 -17.90112305 11.23901367 C-16.38838235 9.56594225 -14.81051068 8.060946 -13.125 6.5625 C-12.56941406 6.03462891 -12.01382812 5.50675781 -11.44140625 4.96289062 C-7.58325191 1.3418036 -5.3869959 -0.64130904 0 0 Z " fill="#FAFCFD" transform="translate(365,122)"/>
<path d="M0 0 C1.0209375 0.00193359 1.0209375 0.00193359 2.0625 0.00390625 C4.58673273 0.56880511 5.39276601 1.42719967 7 3.4375 C7.38818359 5.55053711 7.38818359 5.55053711 7.3984375 7.96484375 C7.40230469 8.83947266 7.40617187 9.71410156 7.41015625 10.61523438 C7.39855469 11.52595703 7.38695312 12.43667969 7.375 13.375 C7.38660156 14.28185547 7.39820313 15.18871094 7.41015625 16.12304688 C7.40628906 16.99896484 7.40242188 17.87488281 7.3984375 18.77734375 C7.39336182 19.97411743 7.39336182 19.97411743 7.38818359 21.19506836 C6.8999821 24.01527633 5.98540534 25.39329546 4 27.4375 C0.24995407 27.98296123 -1.97911903 28.10597722 -5.1953125 26 C-7.92409456 22.12536573 -7.54558007 18.56053772 -7.4375 13.9375 C-7.44458984 13.08285156 -7.45167969 12.22820312 -7.45898438 11.34765625 C-7.42244853 7.74465963 -7.34244372 5.12552913 -5.72265625 1.87109375 C-3.65275738 0.14852485 -2.66930913 -0.07583265 0 0 Z " fill="#FBFDFE" transform="translate(317,103.5625)"/>
</svg>
